# xmcd
#
# Track frame offsets: 
#        150
#        15680
#        37800
#        60102
#        76402
#        102840
#        111022
#        128217
#        139845
#        168687
#        192395
#        203990
#        211342
#        220377
#        231115
#        249412
#
# Disc length: 3437 seconds
#
# Revision: 5
# Processed by: cddbd v1.5.2PL0 Copyright (c) Steve Scherf et al.
# Submitted via: ExactAudioCopyFreeDBPlugin 1.0
#
DISCID=dd0d6b10
DTITLE=Raphael Saadiq - All Hits at the House of Blues
DYEAR=2003
DGENRE=Soul
TTITLE0=Body Parts
TTITLE1=Charlie Ray
TTITLE2=Excuse Me
TTITLE3=Faithful
TTITLE4=Ask of You
TTITLE5=Just Me and You
TTITLE6=Just A Man (ft Devin the Dude)
TTITLE7=Copy Cat (performed by Joi)
TTITLE8=Missing You (performed by Joi)
TTITLE9=Still A Man (performed by Tony! Toni! Toné!)
TTITLE10=Lay Your Head On My Pillow (performed by Tony! Toni! Toné!)
TTITLE11=Whatever You Want (performed by Tony! Toni! Toné!)
TTITLE12=It Never Rains (performed by Tony! Toni! Toné!)
TTITLE13=Anniversary (performed by Tony! Toni! Toné!)
TTITLE14=Let's Get Down (performed by Tony! Toni! Toné! and DJ Quick)
TTITLE15=Loving You (performed by Tony! Toni! Toné!)
EXTD=
EXTT0=
EXTT1=
EXTT2=
EXTT3=
EXTT4=
EXTT5=
EXTT6=
EXTT7=
EXTT8=
EXTT9=
EXTT10=
EXTT11=
EXTT12=
EXTT13=
EXTT14=
EXTT15=
PLAYORDER=
